<?xml version="1.0" encoding="UTF-8"?>
<svg id="FINALS" xmlns="http://www.w3.org/2000/svg" viewBox="0 0 2890.76 4519.43">
  <defs>
    <style>
      .cls-1 {
        fill: #5c6445;
      }
    </style>
  </defs>
  <g id="G_Detailed" data-name="G Detailed">
    <g>
      <path class="cls-1" d="m1319.15,1317.8c-.29.17-.61.25-.94.24-.33,0-.58-.15-.75-.45l-7.63-13.52c-.17-.29-.16-.58,0-.87.17-.29.4-.51.69-.68l7.44-4.2c.31-.17.6-.17.87,0,.27.18.49.4.65.68.19.33.28.66.26.98-.01.32-.16.56-.44.71l-5.92,3.34,2.36,4.18,3.18-1.79c.28-.16.55-.17.82-.04.27.13.49.35.65.64.13.24.2.51.2.81,0,.31-.16.54-.46.72l-3.18,1.79,2.37,4.2,5.92-3.34c.28-.16.56-.16.84,0s.51.4.7.73c.16.28.24.58.25.91,0,.33-.14.57-.45.75l-7.44,4.2Z"/>
      <path class="cls-1" d="m1341.72,1306.94c-.97.39-1.89.59-2.79.62-.89.03-1.65-.08-2.27-.32s-1.02-.58-1.19-1.01c-.08-.21-.12-.46-.1-.75s.08-.56.21-.81c.12-.25.31-.42.54-.51.24-.09.49-.1.77-.01.28.09.59.19.95.32s.77.19,1.22.21c.45.02.96-.09,1.53-.31.45-.18.83-.41,1.15-.71.32-.29.54-.63.66-1,.12-.37.09-.78-.09-1.23-.19-.48-.48-.83-.86-1.05-.38-.23-.84-.37-1.36-.44-.53-.07-1.09-.11-1.68-.13-.59-.02-1.2-.06-1.81-.1-.61-.05-1.2-.17-1.77-.35-.57-.19-1.08-.49-1.55-.91-.47-.42-.85-1-1.16-1.76-.33-.83-.45-1.59-.36-2.29.09-.69.33-1.32.72-1.88.39-.56.87-1.04,1.45-1.46.58-.41,1.18-.74,1.82-1,.34-.14.76-.27,1.25-.41.49-.13.99-.23,1.52-.28.52-.05.98-.02,1.38.08.4.11.67.35.82.72.07.16.1.38.12.65.01.27-.03.54-.12.8-.09.26-.27.45-.54.55-.24.1-.5.12-.79.07-.29-.05-.64-.07-1.06-.07-.42,0-.94.13-1.57.38-.52.21-.95.46-1.28.74-.33.29-.55.59-.64.92-.1.32-.07.67.08,1.04.15.39.42.66.78.83.37.16.8.27,1.31.3.51.04,1.05.06,1.64.07.59,0,1.19.04,1.82.12s1.23.21,1.81.43c.58.21,1.12.56,1.6,1.03.48.47.89,1.12,1.22,1.96.42,1.06.54,2.04.37,2.94-.17.9-.58,1.7-1.23,2.38-.65.68-1.49,1.23-2.51,1.64Z"/>
      <path class="cls-1" d="m1362.25,1300.14c-.39.09-.76.1-1.11,0-.35-.09-.57-.3-.64-.62l-3.22-13.34-3.43.83c-.3.07-.56-.01-.8-.25-.24-.24-.4-.54-.49-.89-.08-.33-.08-.65.01-.98.09-.33.29-.53.62-.61l9.87-2.38c.34-.08.62,0,.84.25.22.25.37.54.44.87.09.36.08.7-.01,1.02s-.3.52-.61.59l-3.41.82,3.22,13.34c.08.33-.02.61-.3.85-.28.24-.61.41-.98.5Z"/>
      <path class="cls-1" d="m1378.5,1297.33c-.46.06-.87-.06-1.22-.35-.35-.29-.55-.65-.61-1.07-.05-.44.05-.84.32-1.2.27-.36.63-.56,1.1-.62.43-.05.82.06,1.18.34.36.28.56.64.62,1.08.05.43-.06.83-.34,1.19s-.63.57-1.06.63Z"/>
      <path class="cls-1" d="m1405.77,1296.36c-.27-.03-.56-.15-.86-.36-.3-.21-.44-.47-.41-.77l.22-2.32c.06-.62.3-1.19.72-1.7.42-.51.95-.99,1.58-1.43.64-.44,1.3-.86,2-1.26s1.36-.81,1.99-1.23c.63-.42,1.15-.86,1.57-1.32s.66-.97.71-1.52c.03-.33-.01-.67-.13-1.01-.12-.34-.33-.63-.64-.88-.31-.25-.72-.39-1.25-.44-.57-.05-1.09.06-1.54.35-.45.29-.71.8-.79,1.55-.03.29-.2.54-.5.75-.31.21-.72.29-1.23.24-.41-.04-.74-.19-.97-.45s-.32-.71-.26-1.35c.09-.91.4-1.67.94-2.29.54-.62,1.22-1.06,2.04-1.34.82-.28,1.68-.37,2.57-.29.92.09,1.77.37,2.55.83.78.47,1.38,1.08,1.81,1.85.43.76.6,1.66.5,2.68-.08.84-.34,1.59-.77,2.24-.43.65-.96,1.23-1.59,1.73-.63.5-1.28.95-1.97,1.34-.69.39-1.34.76-1.95,1.09-.61.34-1.12.68-1.52,1.02-.4.35-.62.73-.66,1.14l-.06.6,6.64.63c.27.03.49.18.66.46.17.28.23.6.2.97-.03.37-.16.68-.38.94-.22.26-.46.38-.73.35l-8.5-.81Z"/>
      <path class="cls-1" d="m1448.11,1305.65c-.25-.1-.49-.3-.72-.59-.23-.29-.28-.58-.17-.86l.88-2.15c.24-.58.63-1.05,1.18-1.42.55-.37,1.19-.67,1.93-.91.74-.23,1.5-.44,2.28-.62.78-.18,1.54-.38,2.26-.61.72-.22,1.35-.49,1.89-.81.54-.32.91-.73,1.12-1.25.13-.31.18-.65.17-1.01-.02-.36-.14-.7-.36-1.03-.22-.32-.58-.59-1.07-.79-.53-.22-1.06-.26-1.57-.11-.52.14-.92.56-1.2,1.26-.11.27-.34.46-.7.57-.36.11-.77.07-1.25-.12-.38-.16-.65-.4-.8-.71-.15-.32-.1-.77.14-1.37.34-.84.87-1.48,1.56-1.92.7-.43,1.48-.66,2.34-.69.87-.03,1.71.13,2.54.47.86.35,1.59.86,2.2,1.53.61.67,1.01,1.44,1.2,2.29.19.86.1,1.76-.29,2.71-.32.78-.78,1.43-1.38,1.92-.6.5-1.27.9-2.02,1.2-.75.3-1.5.54-2.28.72-.77.18-1.5.34-2.18.48-.68.15-1.27.33-1.75.54s-.81.52-.96.9l-.23.56,6.17,2.53c.25.1.42.31.49.63.08.32.05.65-.09.99-.14.34-.35.6-.63.79-.28.19-.55.23-.8.12l-7.91-3.24Z"/>
      <path class="cls-1" d="m1472.44,1317.37c-.33-.19-.6-.44-.81-.75-.2-.31-.22-.61-.05-.9l1.38-2.44-5.01-2.84c-.26-.15-.44-.36-.52-.64-.08-.28-.04-.56.12-.85.05-.08.11-.17.2-.25.08-.08.17-.16.27-.23l10.45-6.9c.28-.19.55-.28.81-.27.27.01.51.08.74.21.17.09.33.24.49.44.16.2.28.43.35.68.07.25.04.48-.07.69-.05.08-.15.18-.31.3l-8.55,5.75,2.46,1.4,1.24-2.19c.17-.31.44-.44.8-.42s.71.14,1.04.33c.33.19.61.43.82.73.21.29.23.59.06.9l-1.24,2.19.96.54c.29.17.44.42.43.77s-.09.67-.27.98c-.18.32-.44.56-.77.72-.33.16-.61.18-.83.05l-.96-.54-1.38,2.44c-.17.29-.43.43-.8.42s-.72-.12-1.05-.31Z"/>
      <g>
        <path class="cls-1" d="m1273.49,1766.15l-10.9,11.85,2.47,2.27c.77.71,1.58,1.04,2.43,1,.85-.04,1.7-.53,2.56-1.45l5.87-6.38c.85-.93,1.26-1.82,1.24-2.67-.03-.85-.43-1.63-1.2-2.34l-2.47-2.28Z"/>
        <polygon class="cls-1" points="1307.98 1805.57 1310.43 1795.66 1303.14 1802.81 1307.98 1805.57"/>
        <path class="cls-1" d="m1420.69,1819.21c-.16-1.27-.57-2.17-1.24-2.68-.67-.52-1.52-.71-2.56-.58s-1.81.53-2.32,1.19c-.51.67-.68,1.63-.53,2.9l1.1,8.8c.16,1.27.57,2.17,1.22,2.69.66.52,1.5.72,2.54.59,1.04-.13,1.82-.53,2.33-1.19.52-.67.7-1.64.54-2.91l-1.1-8.8Z"/>
        <path class="cls-1" d="m1466.71,1805.84c-.49-1.16-1.12-1.91-1.91-2.24s-1.66-.29-2.62.11l-3.31,1.38,2.99,7.14,3.31-1.39c.96-.4,1.61-1,1.93-1.78.32-.78.24-1.75-.25-2.91l-.14-.32Z"/>
        <polygon class="cls-1" points="1479.45 1808.21 1484.36 1805.59 1477.28 1798.23 1479.45 1808.21"/>
        <path class="cls-1" d="m1494.96,1786.54c-.79-.07-1.62.18-2.5.76l-2.93,1.95,3.78,5.67,2.93-1.95c.87-.58,1.42-1.25,1.65-2.02.23-.77,0-1.67-.68-2.7-.71-1.07-1.46-1.64-2.25-1.71Z"/>
        <path class="cls-1" d="m1624.87,1590.16c-3.25,0-6.53-.3-9.8-.86-1.09,47.33-13.18,93.08-35.14,132.73-2.02,3.65-5.5,6.32-9.55,7.33-1.23.31-2.47.46-3.69.46-2.87,0-5.67-.83-8.15-2.44-6.7-4.35-8.82-13.21-4.83-20.19h0c20.86-36.49,33.17-79.4,35.61-124.13-1.59-1.4-3.01-2.99-4.22-4.74-2.02,1.2-4.11,2.32-6.31,3.31-4.61,2.09-9.47,3.66-14.54,4.76-3.25,105.73-77.24,190.27-168.06,190.27s-163.21-82.72-167.94-186.84c-6.09-.66-12.07-2.28-17.85-4.85-2.62-1.17-5.1-2.53-7.45-4.08l.05,1.3c2.33,45.04,14.66,88.27,35.66,125h0c3.99,6.98,1.87,15.85-4.83,20.19-2.48,1.61-5.29,2.44-8.15,2.44-1.23,0-2.47-.15-3.69-.46-4.05-1.01-7.53-3.68-9.55-7.33-18.57-33.51-30.08-71.38-33.85-110.88-5.16,5.1-11.05,9.3-17.57,12.49-3.18,1.56-6.48,2.81-9.88,3.76,17.82,140.15,120.74,247.65,245.04,247.65,135.99,0,246.37-128.66,247.75-287.98-6.2,2.04-12.61,3.09-19.07,3.09Zm-308.96,197.39c.22-.39.56-.64,1.01-.77s.87-.07,1.26.15c.37.21.61.54.73.99.11.45.06.86-.16,1.25s-.56.65-1,.79c-.45.14-.86.1-1.23-.11-.39-.22-.64-.56-.76-1.02-.12-.46-.07-.88.16-1.27Zm-4.14-2.36c.22-.39.55-.65,1-.78.44-.13.86-.08,1.25.14.39.22.64.55.74.99.1.44.05.86-.18,1.24-.22.39-.55.66-.99.8-.44.14-.85.1-1.24-.12-.39-.22-.64-.56-.75-1.02-.11-.45-.05-.88.17-1.27Zm-71.06-25.58c-.44-.21-.82-.52-1.13-.92-.31-.41-.51-.85-.6-1.33-.09-.48.04-.86.4-1.13l10.88-8.38-7.54,1.12c-.35.03-.66-.01-.93-.13-.27-.12-.48-.28-.63-.48-.14-.19-.24-.42-.29-.69-.05-.27,0-.58.13-.93l3.21-7.11-11.06,8.51c-.35.27-.75.31-1.19.11-.44-.2-.82-.51-1.15-.94-.31-.41-.51-.85-.6-1.33-.09-.48.04-.86.4-1.13l15.82-12.18c.61-.47,1.17-.62,1.68-.47.51.16.92.44,1.24.84.31.41.53.78.66,1.12.13.34.16.74.1,1.18-.06.44-.24.98-.52,1.63l-3.28,7.49,8.06-1.28c.72-.07,1.3-.09,1.73-.06.43.03.8.16,1.1.38.31.22.61.53.91.92.33.42.5.9.51,1.42.02.53-.28,1.02-.89,1.49l-15.82,12.18c-.35.27-.75.3-1.2.09Zm15.6,13.13c-.12.41-.36.79-.74,1.14-.31.29-.68.49-1.1.6-.42.11-.79,0-1.11-.35l-7.71-8.38c-.3-.33-.5-.71-.6-1.15-.1-.43.02-.8.35-1.11l15.24-14.02c.33-.3.71-.39,1.13-.26s.79.36,1.09.69l7.71,8.38c.32.34.4.72.26,1.13-.15.41-.38.76-.69,1.05-.38.35-.77.56-1.19.64-.42.08-.77-.04-1.06-.35l-6.13-6.66-4.71,4.33,3.29,3.58c.29.31.39.67.3,1.05-.09.39-.3.74-.63,1.04-.27.25-.6.41-.99.5-.4.09-.75-.04-1.07-.38l-3.29-3.58-4.73,4.36,6.13,6.66c.29.31.38.68.26,1.09Zm13.14,12.38c-1.22.34-2.42.3-3.58-.12-1.17-.42-2.27-1.11-3.3-2.06l-4.17-3.83c-.41-.38-.65-.77-.72-1.18-.07-.41.02-.75.26-1.02l14.06-15.28c.25-.27.58-.38.99-.35.42.04.83.24,1.24.62l4.17,3.83c1.04.95,1.81,1.99,2.33,3.12.51,1.12.65,2.31.42,3.56s-.96,2.53-2.17,3.85l-5.87,6.38c-1.21,1.32-2.43,2.15-3.66,2.48Zm20.59,19.08c-.48-.06-.93-.25-1.34-.54-.44-.31-.77-.68-.99-1.12s-.21-.84.05-1.2l5.3-7.46-5.87-4.17-5.3,7.46c-.26.37-.63.52-1.11.45-.48-.06-.93-.25-1.34-.54-.44-.31-.77-.68-.99-1.12-.23-.44-.21-.84.05-1.2l12.01-16.91c.27-.38.64-.53,1.12-.44.47.09.93.29,1.36.6.42.3.74.65.97,1.06.23.41.21.81-.06,1.19l-4.82,6.78,5.87,4.17,4.82-6.78c.27-.38.64-.53,1.12-.44.47.09.93.29,1.36.6.42.3.74.65.97,1.06.23.41.21.81-.06,1.19l-12.01,16.91c-.26.37-.63.52-1.11.45Zm19.98,10.18c-.16.28-.43.46-.81.55s-.79.1-1.21.03c-.43-.07-.81-.2-1.14-.39-.3-.17-.52-.37-.68-.59-.16-.22-.19-.5-.11-.82l1.05-4.3-6.39-3.65-3.14,3.11c-.23.24-.49.34-.77.32-.28-.02-.57-.12-.87-.29-.33-.19-.64-.45-.92-.78-.28-.33-.47-.68-.59-1.04-.11-.36-.09-.69.08-.98.03-.06.09-.14.19-.26l15.35-14.42c.36-.33.83-.47,1.4-.42.57.06,1.11.23,1.63.53.54.31.97.69,1.3,1.15s.44.93.34,1.41l-4.62,20.54c-.04.15-.07.25-.1.31Zm23.36-10.5c-.1.21-.27.45-.52.72-.25.26-.54.47-.88.62-.34.15-.68.15-1.03,0-.31-.14-.58-.37-.79-.69-.22-.32-.52-.68-.92-1.08-.39-.4-1-.78-1.82-1.15-.68-.31-1.31-.49-1.9-.54-.58-.05-1.08.02-1.47.23-.4.21-.71.55-.92,1.04-.23.51-.25,1.01-.07,1.51s.49,1.02.92,1.54c.43.52.92,1.07,1.46,1.64.54.57,1.06,1.19,1.57,1.85.51.66.93,1.37,1.27,2.13s.5,1.59.5,2.49c0,.9-.25,1.89-.75,2.98-.62,1.38-1.45,2.41-2.47,3.08-1.03.67-2.17,1.01-3.42,1.02-1.26,0-2.55-.29-3.9-.89-1.26-.57-2.32-1.27-3.18-2.1s-1.45-1.66-1.8-2.48c-.34-.82-.39-1.51-.13-2.08.12-.27.33-.54.62-.79.29-.25.61-.44.97-.55.35-.11.69-.09,1,.05.31.14.55.38.72.73.17.35.36.75.58,1.21.21.46.52.92.93,1.37.4.45.98.84,1.72,1.18.58.26,1.17.41,1.74.45.58.04,1.1-.06,1.57-.29.47-.23.83-.64,1.1-1.23.28-.62.35-1.22.21-1.8-.14-.58-.42-1.15-.84-1.71-.42-.56-.9-1.14-1.43-1.73-.53-.59-1.06-1.2-1.58-1.83-.52-.63-.96-1.31-1.3-2.02-.34-.72-.53-1.49-.57-2.33-.03-.83.17-1.75.62-2.74.49-1.09,1.11-1.91,1.86-2.46.75-.55,1.57-.9,2.47-1.04.9-.15,1.81-.13,2.74.04.93.17,1.81.45,2.65.82.45.2.96.47,1.54.82s1.14.74,1.67,1.19c.53.45.93.92,1.2,1.4.26.48.28.96.07,1.45Zm4.61,22.43c-.14.42-.46.67-.95.74-.49.07-.97.02-1.46-.14-.5-.17-.92-.43-1.25-.78-.33-.35-.43-.74-.28-1.16l5.91-17.32-4.45-1.52c-.38-.13-.62-.42-.72-.86s-.07-.89.09-1.36c.14-.42.38-.79.71-1.09.33-.3.71-.38,1.13-.24l12.81,4.37c.44.15.7.45.76.89.06.44.02.87-.12,1.29-.16.46-.41.84-.74,1.13s-.71.37-1.11.23l-4.42-1.51-5.91,17.32Zm26.42-11.98l-8.82-2.07-1.46,6.23,4.74,1.11c.42.1.69.33.84.71.14.37.16.78.06,1.21-.08.35-.26.68-.54.97-.28.3-.65.39-1.1.28l-4.74-1.11-1.47,6.26,8.82,2.07c.42.1.69.35.83.75.14.41.14.86.03,1.35-.1.42-.29.79-.57,1.11-.29.33-.66.44-1.11.33l-11.09-2.6c-.44-.1-.82-.31-1.14-.61s-.43-.68-.33-1.11l4.73-20.16c.1-.44.37-.72.79-.85.43-.13.86-.14,1.29-.04l11.09,2.6c.46.11.74.37.85.79.11.42.12.84.02,1.25-.12.5-.33.9-.63,1.2-.3.3-.66.4-1.07.31Zm19.09.26l-2.56,20.58c-.06.44-.31.75-.76.92-.45.17-.94.22-1.47.16-.49-.06-.93-.21-1.31-.45s-.68-.62-.87-1.14l-5.27-13.62-1.58,12.73c-.06.45-.31.75-.76.92-.45.17-.94.22-1.47.16-.51-.06-.97-.23-1.37-.51-.41-.28-.58-.64-.53-1.08l2.56-20.58c.06-.45.31-.75.77-.9.46-.16.94-.21,1.45-.14.51.06.92.17,1.23.31.31.15.6.39.84.73.25.34.49.85.73,1.53l4.66,12.61,1.58-12.73c.06-.46.32-.77.77-.92s.94-.19,1.45-.13c.53.07.99.23,1.39.48.4.25.57.61.51,1.08Zm22.95,19.38c-.64,1.05-1.52,1.84-2.65,2.39-1.13.55-2.43.83-3.9.87-1.39.03-2.64-.15-3.77-.53s-2.02-.87-2.69-1.46c-.66-.59-1-1.2-1.01-1.82,0-.3.07-.62.22-.98.15-.36.36-.66.64-.91.27-.25.58-.38.92-.39.34,0,.66.11.97.35.3.24.65.52,1.04.84.39.32.87.6,1.43.83.56.23,1.24.34,2.06.33.64-.01,1.23-.13,1.77-.34.54-.21.97-.53,1.29-.94.32-.41.48-.94.46-1.58-.01-.68-.21-1.25-.58-1.72-.37-.46-.87-.86-1.5-1.19-.63-.33-1.3-.64-2.04-.95-.73-.3-1.47-.63-2.21-.98-.74-.35-1.42-.77-2.04-1.27-.62-.5-1.12-1.12-1.51-1.86-.39-.74-.59-1.65-.62-2.74-.02-1.19.18-2.2.63-3.02.44-.82,1.04-1.49,1.78-2.01.75-.52,1.58-.9,2.49-1.14.91-.24,1.83-.37,2.74-.39.49-.01,1.07.02,1.75.08.67.06,1.35.18,2.02.36.68.18,1.24.43,1.68.75.44.32.67.75.68,1.28,0,.23-.05.52-.16.87-.11.34-.29.66-.53.94s-.55.43-.93.43c-.34,0-.68-.09-1.01-.28-.33-.2-.77-.39-1.29-.58-.53-.19-1.24-.28-2.13-.26-.75.02-1.4.12-1.95.33-.55.2-.96.48-1.23.84-.27.36-.4.8-.39,1.34.01.56.21,1.02.59,1.4s.88.71,1.49.99c.61.29,1.29.57,2.02.85.73.28,1.47.62,2.21,1,.74.38,1.43.84,2.06,1.38.63.54,1.13,1.22,1.51,2.03.38.81.58,1.82.61,3.01.03,1.51-.27,2.8-.91,3.84Zm19-2.08c-.52,1.15-1.32,2.04-2.39,2.65-1.07.62-2.31,1.01-3.71,1.19-1.4.17-2.69.09-3.87-.24-1.18-.34-2.17-1-2.97-1.98-.8-.99-1.31-2.37-1.53-4.15l-1.1-8.8c-.22-1.78-.07-3.24.47-4.4.53-1.15,1.33-2.04,2.39-2.65,1.06-.62,2.29-1.01,3.69-1.19s2.69-.09,3.88.24c1.19.33,2.18,1,2.97,1.98.79.99,1.29,2.37,1.52,4.15l1.09,8.8c.22,1.78.07,3.24-.45,4.39Zm24.14-2.84c-.37.32-.8.55-1.3.67-.5.12-.99.13-1.46.02-.48-.11-.77-.38-.88-.82l-3.31-13.32-2,7.35c-.11.34-.28.6-.49.8s-.45.33-.7.39c-.23.06-.48.05-.75-.01-.27-.06-.54-.23-.8-.49l-5.23-5.79,3.36,13.54c.11.43-.02.81-.38,1.13-.36.32-.8.54-1.32.67-.5.12-.99.13-1.46.02-.48-.11-.77-.39-.88-.82l-4.82-19.38c-.18-.75-.1-1.32.25-1.73.35-.41.77-.67,1.27-.79.5-.12.93-.18,1.3-.16s.74.15,1.12.38.81.61,1.29,1.13l5.55,6.01,2.06-7.9c.22-.69.44-1.23.64-1.61s.47-.67.79-.86c.33-.19.73-.35,1.2-.46.52-.13,1.02-.09,1.51.1.49.2.83.67,1.01,1.41l4.82,19.38c.11.43-.02.81-.39,1.14Zm21.68-20.5c-.2,1.24-.73,2.3-1.6,3.18s-1.95,1.6-3.25,2.14l-3.31,1.38,2.86,6.82c.17.41.11.81-.2,1.18-.31.37-.7.66-1.17.85-.49.21-.98.29-1.47.25-.49-.04-.82-.26-.99-.68l-8.01-19.12c-.14-.33-.12-.68.05-1.03.18-.35.48-.62.91-.8l5.9-2.47c1.26-.53,2.49-.79,3.68-.78,1.19,0,2.29.38,3.29,1.1s1.84,1.9,2.51,3.51l.07.18c.68,1.61.92,3.04.72,4.28Zm21.66.98c-.13.37-.34.72-.62,1.04s-.6.57-.94.75c-.3.16-.59.25-.86.26-.27.01-.52-.1-.75-.35l-3.08-3.18-6.49,3.46.96,4.31c.08.32.03.6-.14.82-.17.22-.41.42-.71.58-.34.18-.72.3-1.15.36-.43.06-.83.04-1.19-.05-.37-.1-.63-.29-.79-.59-.03-.06-.07-.16-.12-.3l-4.03-20.67c-.09-.48.04-.95.39-1.41.35-.45.79-.82,1.32-1.1.54-.29,1.1-.45,1.66-.49.56-.03,1.02.12,1.37.46l14.92,14.85c.11.11.18.2.21.25.15.28.16.61.03.98Zm15.7-9.46c-.21.4-.49.71-.85.95-.23.15-.5.23-.82.24-.32,0-.63-.08-.93-.27l-8.68-4.84-2.24,1.49,4.61,6.93c.25.37.26.77.03,1.19s-.57.78-1.01,1.08c-.43.28-.88.45-1.37.51-.49.06-.86-.1-1.1-.48l-11.49-17.26c-.2-.3-.27-.63-.21-.98.06-.35.26-.64.6-.86l5.28-3.51c1.17-.78,2.35-1.32,3.52-1.61,1.17-.29,2.32-.23,3.42.2,1.11.43,2.13,1.36,3.08,2.78.69,1.03,1.12,2.01,1.29,2.93s.15,1.77-.09,2.56c-.23.78-.62,1.51-1.15,2.17l7.82,4.13c.08.05.16.1.23.17.07.07.12.13.16.18.19.28.27.64.25,1.06-.02.43-.14.84-.35,1.23Zm10.36-8.23c-.2.45-.5.83-.9,1.15-.42.33-.86.55-1.33.64-.47.09-.85-.04-1.13-.39l-11.42-14.3-3.67,2.94c-.32.25-.69.3-1.11.15-.42-.15-.79-.42-1.09-.81-.28-.35-.46-.75-.54-1.19-.08-.44.06-.8.41-1.08l10.58-8.45c.37-.29.75-.35,1.16-.17.41.18.75.45,1.03.8.31.38.49.79.56,1.23s-.07.79-.4,1.06l-3.65,2.92,11.42,14.3c.28.35.32.75.12,1.2Zm18.77-16.89c-.16.46-.42.87-.81,1.24-.36.34-.75.58-1.18.73-.43.15-.91.13-1.44-.05l-13.88-4.54,8.86,9.29c.31.32.39.71.23,1.17-.15.46-.42.87-.81,1.24-.37.35-.79.6-1.26.74-.47.14-.86.05-1.17-.28l-14.31-15.01c-.31-.32-.38-.71-.21-1.17s.44-.86.81-1.21c.37-.35.71-.6,1.03-.76.31-.15.68-.21,1.1-.19.42.03.97.16,1.64.4l12.71,4.38-8.85-9.29c-.32-.34-.4-.73-.22-1.18.18-.45.45-.85.82-1.2.39-.37.8-.63,1.25-.77.45-.15.83-.05,1.16.29l14.31,15.01c.31.32.39.71.23,1.17Zm13.16-14.01l-7.56,8.53c-.3.33-.66.57-1.08.71-.42.14-.8.06-1.14-.24l-15.5-13.73c-.33-.3-.46-.66-.37-1.1.09-.44.28-.82.58-1.16l7.55-8.53c.31-.35.68-.48,1.1-.37.42.1.79.3,1.11.58.38.34.64.71.76,1.12s.04.77-.24,1.09l-6.01,6.78,4.79,4.24,3.23-3.64c.28-.32.62-.45,1.02-.4.4.05.76.23,1.1.52.27.24.47.55.6.94.13.38.04.75-.27,1.1l-3.23,3.64,4.81,4.27,6.01-6.78c.28-.32.63-.44,1.05-.37s.82.28,1.21.62c.32.28.55.63.71,1.03s.07.79-.24,1.14Zm11.65-15.32c-.07.44-.23.84-.49,1.18-.17.22-.4.39-.7.5s-.62.13-.96.05l-9.79-1.7-1.62,2.14,6.64,5.02c.36.27.5.64.42,1.12-.08.48-.28.93-.6,1.35-.31.41-.68.72-1.13.93s-.84.19-1.2-.08l-16.54-12.5c-.29-.22-.46-.5-.52-.85s.04-.69.28-1.01l3.82-5.05c.85-1.12,1.78-2.02,2.79-2.68,1.01-.67,2.11-.98,3.3-.94,1.19.04,2.46.58,3.82,1.6.99.75,1.72,1.52,2.19,2.33.47.81.73,1.62.76,2.44.04.82-.09,1.63-.37,2.43l8.75,1.32c.09.02.19.05.27.09.09.04.16.08.21.12.27.21.47.51.59.92s.14.84.08,1.28Z"/>
        <path class="cls-1" d="m1547.89,1738.23c-1.02-.77-1.92-1.06-2.69-.87-.77.19-1.47.7-2.1,1.54l-2.12,2.81,5.44,4.11,2.12-2.81c.63-.83.93-1.65.89-2.45-.04-.8-.55-1.58-1.53-2.32Z"/>
        <path class="cls-1" d="m1569.02,1353.65c-11.62-14.68-32.96-17.1-47.58-5.4h0c-13.6,10.89-16.62,30.3-7.1,44.9,13.54,20.77,24.81,45.08,33.22,71.96,12.04.33,22.92,2.96,32.37,7.83,3.89,2.01,7.49,4.3,10.78,6.85,4.94-5.55,11.13-9.8,18.43-12.61,5.37-2.06,11.01-3.27,16.83-3.65-13-41.69-32.53-79.03-56.95-109.9Zm2.38,63.55l-3.18,1.66c-1.96,1.02-4.37.26-5.4-1.7l-5.85-11.21c-1.02-1.96-.26-4.37,1.7-5.4l3.18-1.66c1.96-1.02,4.37-.26,5.4,1.7l5.85,11.21c1.02,1.96.26,4.37-1.7,5.4Z"/>
        <path class="cls-1" d="m1270.93,1348.25h0c-14.61-11.7-35.96-9.28-47.58,5.4-18.91,23.89-34.88,51.66-47.16,82.33.04,0,.1,0,.14,0,2.65-.05,4.24-.13,5.1-.18,2.18-.13,4.34-.2,6.44-.2,11.57,0,21.58,7.46,24.93,18.55.86,2.88,1.29,5.85,1.29,8.88,0,.69-.03,1.37-.07,2.05,3.27-.02,5.03-.07,5.95-.11,2.61-.12,4.88-.18,6.97-.18,3.52,0,7.1.74,10.44,2.19,2.34-.99,4.85-1.65,7.46-1.91,8.4-26.86,19.67-51.15,33.2-71.9,9.52-14.6,6.5-34.01-7.1-44.9Zm-35.54,57.82l-5.85,11.21c-1.02,1.96-3.44,2.72-5.4,1.7l-3.18-1.66c-1.96-1.02-2.72-3.44-1.7-5.4l5.85-11.21c1.02-1.96,3.44-2.72,5.4-1.7l3.18,1.66c1.96,1.02,2.72,3.44,1.7,5.4Z"/>
        <path class="cls-1" d="m1610.15,1589.56h-3.37c-5,0-9.65-1.34-13.62-3.7-2.81,44.44-15.21,87-35.98,123.32h0c-2.94,5.14-1.38,11.66,3.53,14.85,2.6,1.69,5.69,2.2,8.7,1.45,3.02-.75,5.51-2.67,7.02-5.39,21.63-39.04,33.55-84.1,34.64-130.74l-.92.21Zm-18.62,84.94l-5.41,13.94c-.8,2.06-3.12,3.08-5.18,2.28l-3.35-1.3c-2.06-.8-3.08-3.12-2.28-5.18l5.41-13.94c.8-2.06,3.12-3.08,5.18-2.28l3.35,1.3c2.06.8,3.08,3.12,2.28,5.18Zm13.84-58.53l-2.08,14.81c-.31,2.19-2.33,3.71-4.52,3.41l-3.55-.5c-2.19-.31-3.71-2.33-3.41-4.52l2.08-14.81c.31-2.19,2.33-3.71,4.52-3.41l3.55.5c2.19.31,3.71,2.33,3.41,4.52Z"/>
        <path class="cls-1" d="m1235.2,1709.18c-21.31-37.27-33.82-81.12-36.19-126.8l-.19-4.5c-.43-.35-.86-.7-1.28-1.06-.86,3.95-1.97,7.64-3.37,11.1l-.1.24c-2.89,6.94-6.87,13.33-11.82,19.06,3.36,40.24,14.83,78.85,33.69,112.88,1.51,2.72,4,4.64,7.02,5.39,3.01.75,6.1.24,8.7-1.45,4.92-3.19,6.47-9.71,3.53-14.85Zm-38.05-75.37l-3.55.5c-2.19.31-4.21-1.22-4.52-3.41l-2.08-14.81c-.31-2.19,1.22-4.21,3.41-4.52l3.55-.5c2.19-.31,4.21,1.22,4.52,3.41l2.08,14.81c.31,2.19-1.22,4.21-3.41,4.52Zm17.62,55.74l-3.35,1.3c-2.06.8-4.38-.22-5.18-2.28l-5.41-13.94c-.8-2.06.22-4.38,2.28-5.18l3.35-1.3c2.06-.8,4.38.22,5.18,2.28l5.41,13.94c.8,2.06-.22,4.38-2.28,5.18Z"/>
      </g>
      <path class="cls-1" d="m1295.7,1465.22c2.77.05,4.85.07,6.27.07h9.13c1.82,0,3.55.83,4.69,2.25l3.57,4.46c4.7-4.42,10.95-7.02,17.57-7.02,1.81,0,4.12.06,7.06.17.56.02,1.1.04,1.61.06l-14.88-17.62h5.59c1.71,0,2.63-2,1.52-3.3l-24.61-28.84c-.81,1.2-1.59,2.38-2.32,3.51-8.96,13.92-16.6,29.42-22.85,46.12,2.5.05,5.04.09,7.65.13Z"/>
      <path class="cls-1" d="m1409.8,1434.56h12.01l-33.25,30.37c1.23.02,2.47.03,3.71.03h19.94c1.08-.58,2.22-1.1,3.4-1.54,5.55-2.09,11.75-2.39,17.98-.69,2.48.67,4.76,1.68,6.85,2.94,2.32-.65,4.76-1.01,7.31-1.01s5.12.09,8.27.27c1.85.11,3.76.12,5.69.05l.94-.02c1.73,0,3.72-.02,5.93-.07,2.46-.05,5.52-.12,9.19-.22h.68c6.76,0,13.06,2.67,17.77,7.22,2.49-2.39,5.41-4.25,8.61-5.48-6.34-17.2-14.16-33.14-23.36-47.43-7.1-11.03-18.24-25.85-32.93-37.77l-23.72,21.13c-1.37,1.22-.51,3.49,1.33,3.49h11.19l-28.85,25.23c-1.39,1.22-.53,3.51,1.32,3.51Z"/>
      <path class="cls-1" d="m1396.19,1739.67c8.34,0,16.5-1,24.41-2.88,21.81-18.19,44.82-33.61,68.43-46.13,6.3-8.13,11.9-17.09,16.68-26.72-45.67,14.1-91.11,38.69-132.22,73.25,7.37,1.63,14.96,2.48,22.71,2.48Z"/>
      <path class="cls-1" d="m1491.58,1599.6c10.76,0,21.39.43,31.88,1.23.18-1.9.34-3.82.47-5.74-16.99-2.14-34.42-3.25-52.2-3.25-72.78,0-139.32,22.75-190.34,60.35,2.39,5.88,5.06,11.56,8.01,17,52.35-43.07,123.62-69.59,202.17-69.59Z"/>
      <path class="cls-1" d="m1338.18,1693.22c1.22,1.73,3.75,1.93,5.16.35,1.18-1.32,2.58-2.57,4.16-3.68,7.59-5.34,16.63-5.56,20.18-.5s.28,13.49-7.31,18.82c-1.58,1.11-3.23,2-4.88,2.67-1.96.79-2.63,3.24-1.42,4.97h0c.84,1.19,2.36,1.73,3.74,1.26,2.78-.95,5.56-2.35,8.2-4.21,11.25-7.9,15.66-21.01,9.86-29.27-5.8-8.26-19.63-8.55-30.88-.64-2.64,1.85-4.9,3.99-6.74,6.29-.91,1.14-.92,2.75-.09,3.94h0Z"/>
      <path class="cls-1" d="m1377.34,1640.37c.84,1.41,3.06,1.55,4.52.24,1.23-1.1,2.63-2.14,4.19-3.07,7.45-4.45,15.5-4.72,17.96-.6s-1.58,11.08-9.03,15.53c-1.55.93-3.13,1.67-4.68,2.24-1.85.67-2.77,2.69-1.93,4.1h0c.58.97,1.86,1.4,3.14,1,2.6-.81,5.25-1.99,7.84-3.53,11.04-6.6,16.73-17.41,12.71-24.14-4.02-6.73-16.24-6.84-27.28-.25-2.59,1.55-4.88,3.33-6.83,5.23-.96.94-1.19,2.27-.61,3.24h0Z"/>
      <path class="cls-1" d="m1441.28,1639.62c.47,1.42,2.33,2,3.81,1.15,1.24-.71,2.61-1.33,4.1-1.83,7.12-2.37,14-.93,15.38,3.21,1.38,4.14-3.27,9.42-10.39,11.79-1.48.49-2.96.82-4.37.99-1.69.2-2.83,1.79-2.35,3.2h0c.32.98,1.34,1.62,2.5,1.53,2.35-.17,4.81-.66,7.29-1.48,10.54-3.51,17.26-11.84,15.01-18.6-2.25-6.76-12.62-9.4-23.16-5.89-2.47.82-4.73,1.91-6.72,3.18-.98.63-1.41,1.75-1.08,2.72h0Z"/>
      <path class="cls-1" d="m1478.33,1613.69c.22,1.19,1.78,1.84,3.19,1.3,1.19-.46,2.48-.83,3.86-1.08,6.59-1.23,12.45.59,13.11,4.06.65,3.48-4.16,7.29-10.75,8.53-1.37.26-2.72.38-3.99.38-1.51,0-2.73,1.17-2.51,2.36h0c.15.82.96,1.43,1.99,1.48,2.09.09,4.33-.07,6.62-.5,9.76-1.83,16.81-7.91,15.75-13.58s-9.83-8.8-19.59-6.97c-2.29.43-4.43,1.09-6.35,1.93-.95.41-1.48,1.28-1.32,2.1h0Z"/>
      <g id="Junelds">
        <path class="cls-1" d="m1187.88,1459.59c-1.61,0-3.27.05-4.93.15-1.6.1-3.66.18-6.11.23-2.45.05-5.8.08-10.24.08-3.08,0-6.25-.03-9.41-.08-3.3-.05-6.58-.08-9.74-.08-.94,0-1.65.5-1.94,1.37-.19.56-.28,1.15-.28,1.76,0,2.58.75,3.89,2.22,3.89h8.82c.16,0,.4.19.64.51.2.27.61,1.06,1.03,3.31.34,1.81.51,4.69.51,8.55v65.21c0,2.38-.05,5.63-.15,9.93-.1,4.19-.31,8.65-.61,13.26-.3,4.61-.76,8.98-1.36,12.99-.59,3.93-1.38,6.96-2.32,8.95-.65,1.2-1.48,2.22-2.49,3.04-1.89,1.54-5.29,1.43-10.69.18-2.72-.63-5.18-1.59-7.32-2.85l-.42-.25-.45.17c-4.86,1.88-7.33,5-7.33,9.29,0,1.84.67,3.28,1.99,4.29,1.18.9,2.49,1.5,3.91,1.78,1.35.27,2.38.4,3.16.4,5.8,0,11.21-1.21,16.1-3.6,4.86-2.38,9.18-5.62,12.84-9.65,3.66-4.02,6.56-8.57,8.62-13.52,1.75-4.33,2.9-9.64,3.41-15.8.51-6.09.76-12.81.76-20v-70.38c0-2.98.54-4.28,1-4.85.6-.75,2.06-1.14,4.24-1.14h6.54c.49,0,1.38-.19,1.85-1.49.24-.67.36-1.42.36-2.24,0-.7-.09-1.36-.27-1.96-.28-.92-1-1.47-1.95-1.47Z"/>
        <path class="cls-1" d="m1272.84,1488.77c-1.12,0-2.06.03-2.81.08-.7.05-1.7.1-3.01.15-1.27.05-3.44.08-6.65.08-2.32,0-4.43-.02-6.44-.08-2.09-.05-4.27-.08-6.48-.08-.87,0-1.52.51-1.73,1.36-.12.48-.18,1.02-.18,1.61,0,.89,0,3.58,1.91,3.58h5.99c.09.07.34.34.69,1.15.31.72.71,2.64.83,7.78.1,2.22.18,4.37.23,6.44.05,2.08.1,4.71.15,7.9.05,3.23.08,7.7.08,13.28,0,8.33-1.63,14.45-4.85,18.2-3.23,3.75-7.43,5.58-12.85,5.58s-9.95-1.65-13.54-4.91c-3.56-3.23-5.37-8.81-5.37-16.59v-34.81c0-2.21.39-3.04.62-3.33.16-.21.75-.68,2.79-.68h4.71c.67,0,2.22-.3,2.22-3.13,0-2.96-1.21-3.58-2.22-3.58-1.71,0-3.62.05-5.82.15-2.09.1-5.5.15-10.14.15-2.22,0-4.67-.05-7.26-.15-2.69-.1-5.21-.15-7.49-.15-.83,0-2.22.43-2.22,3.28,0,.74.13,1.43.38,2.04.5,1.25,1.45,1.39,1.84,1.39h5.32c.68,0,1.19.97,1.5,1.78.56,1.5.85,4.35.85,8.47v31.62c0,6.37,1.54,11.78,4.59,16.08,3.03,4.28,6.95,7.52,11.66,9.61,4.67,2.07,9.51,3.13,14.39,3.13s10-1.16,14.58-3.45c4.6-2.3,8.41-5.71,11.33-10.15,2.93-4.45,4.42-10.09,4.42-16.74,0-9.59.18-17.76.53-24.27.35-6.55.58-10.65.68-12.28.24-2.29.63-3.17.83-3.49.07-.1.5-.61,2.73-.61h3.19c.94,0,2.06-.6,2.06-3.43,0-.62-.1-1.2-.29-1.72-.3-.8-.95-1.26-1.77-1.26Z"/>
        <path class="cls-1" d="m1363.74,1488.77c-1.9,0-4.15.05-6.88.15-2.59.1-4.98.15-7.11.15-1.82,0-4.01-.05-6.5-.15-2.62-.1-4.62-.15-6.12-.15-.41,0-1.18.17-1.67,1.27-.26.58-.39,1.2-.39,1.85,0,.7.09,1.37.26,2.01.39,1.42,1.39,1.57,1.8,1.57h5.32c.66,0,1.21,1.4,1.44,3.64.4,5.24.66,11.79.76,19.47.09,7.1.18,15.24.28,24.43-1.04-1.32-2.36-3.01-3.96-5.07-2.53-3.24-5.42-6.96-8.66-11.17-3.25-4.21-6.63-8.54-10.04-12.85-3.44-4.35-6.61-8.38-9.5-12.08-2.89-3.7-6.19-7.87-9.81-12.4l-.3-.38h-.48c-1.52,0-3.74-.02-6.67-.08-2.94-.05-5.8-.1-8.59-.15-2.8-.05-4.85-.08-6.17-.08s-1.91,1.1-1.91,3.28.64,3.43,1.91,3.43c2.75,0,4.7.12,5.79.36.94.21,1.96.94,3.02,2.17l.53.63c0,4.06-.05,8.66-.15,13.68-.1,5.1-.25,10.33-.46,15.56-.21,5.29-.46,10.4-.76,15.18-.3,4.85-.61,9.14-.91,12.75-.07.86-.31,1.42-.72,1.65-.38.22-1.24.48-3.15.48h-3.65c-1.08,0-1.4,1.26-1.5,1.67-.17.68-.26,1.33-.26,1.91,0,.53.1,1.05.29,1.57.39,1.04,1.01,1.26,1.47,1.26,1.49,0,3.54-.05,6.27-.15,2.66-.1,5.2-.15,7.56-.15h12.62c.85,0,1.5-.47,1.72-1.26.13-.45.19-.92.19-1.41,0-.67-.08-1.41-.25-2.19-.33-1.53-1.09-1.85-1.66-1.85h-6.03s-.38-.21-.75-1.74c-.38-1.58-.58-3.32-.58-5.18-.1-5.27-.23-11.45-.38-18.55-.14-6.57-.3-14.63-.49-24.17,3.43,4.09,7.05,8.47,10.8,13.05,4.33,5.29,8.73,10.59,13.08,15.74,4.35,5.17,8.31,9.88,11.85,14.13,3.55,4.26,7.5,8.97,11.86,14.14l.06.06c.9.9,2.26,1.36,4.05,1.36,3.25,0,3.74-1.58,3.74-2.52,0-9.57.08-18.82.23-27.49.15-8.69.36-16.38.61-22.85.25-6.46.53-11.17.83-13.98.19-1.6.46-2.77.81-3.47.27-.55,1.23-.66,1.99-.66h5.32c1.27,0,1.91-1.1,1.91-3.28,0-.64-.13-1.27-.39-1.85-.14-.31-.57-1.27-1.52-1.27Z"/>
        <path class="cls-1" d="m1434.2,1545.95c-.92-.22-1.91-.3-3.31.08-.9.25-1.46.7-1.68,1.34l-.74,5.66c-1.92,1.22-4.86,2.21-8.75,2.94-4.23.8-8.76,1.25-13.42,1.35h-4.86c-.18,0-.66-.39-1.19-1.85-.56-1.55-.85-4.43-.85-8.55v-17.36c2.95.1,5.76.24,8.35.42,2.93.2,5.4.41,7.34.61,1.41.15,2.13.27,2.49.35l1.1,5.93c.03.37.24,1.01,1.25,1.29.96.28,2.09.25,3.28-.07,1.37-.37,1.57-1.19,1.57-1.65v-.12c-.21-1.7-.36-3.44-.46-5.18-.1-1.73-.15-3.37-.15-4.88,0-1.71.05-3.29.15-4.72.1-1.44.25-2.98.45-4.58v-.12c0-.41-.14-1.39-1.47-1.79-.61-.18-1.1-.27-1.5-.27-.62,0-2.5,0-3.06,1.39l-1.01,5.93c-.43.07-1.2.19-2.59.36-2.01.25-4.52.48-7.47.68-2.63.18-5.41.32-8.28.42v-23.89c0-1.89.32-2.76.59-3.17.32-.49,1.04-.77,2.06-.85,4.68,0,8.47.2,11.26.6,2.72.39,5.04.93,6.88,1.6.96.5,1.65,1.4,2.11,2.75.54,1.58,1.01,3.06,1.4,4.41.06.54.44,1.18,1.75,1.48,1.54.35,2.38.34,3.39-.04,1-.38,1.25-1.18,1.08-1.85-.39-2.16-.66-4.86-.81-8.03-.15-3.21-.23-6.21-.23-8.92,0-.46-.2-1.28-1.57-1.65-1.32-.36-2.28-.35-3.27.03-1.13.42-1.26,1.27-1.26,1.62v1.43h-30.46c-2.83,0-5.66-.05-8.4-.15-2.88-.1-5.21-.15-7.1-.15-.8,0-2.67.33-2.67,3.43s1.98,3.28,2.82,3.28h5.47c.23,0,.75.46,1.24,2.16.53,1.83.8,4.86.8,9v47.88c0,2.5-.18,3.14-.2,3.23,0,0-.21.18-1.08.18h-6.84c-.35,0-1.22.13-1.63,1.37-.19.56-.28,1.15-.28,1.76,0,.49.08,1.07.26,1.76.38,1.51,1.39,1.67,1.81,1.67,1.12,0,2.5-.03,4.14-.08,1.62-.05,4.09-.1,7.43-.15,3.25-.05,7.91-.08,14.27-.08h26.06v1.43c0,.39.16,1.32,1.66,1.59.63.11,1.16.17,1.62.17.37,0,.81-.06,1.36-.18,1.36-.31,1.46-1.29,1.46-1.58,0-2.74.05-5.78.15-9.01.1-3.23.35-6.18.73-8.68.23-.94-.24-1.73-1.19-1.97Z"/>
        <path class="cls-1" d="m1504.27,1545.95c-.91-.22-1.92-.3-3.31.08-.9.25-1.46.7-1.68,1.34l-.74,5.66c-1.92,1.22-4.86,2.21-8.75,2.94-4.23.8-8.76,1.25-13.42,1.35h-3.95c-.18,0-.66-.39-1.19-1.85-.56-1.55-.85-4.43-.85-8.55v-50.31c0-1,.17-1.27.16-1.27.02-.02.19-.16.81-.16h6.99c.67,0,2.22-.3,2.22-3.13,0-.63-.13-1.26-.38-1.9-.46-1.14-1.17-1.38-1.71-1.38h0c-3.75.1-6.86.18-9.34.23-2.37.05-4.54.08-6.48.08-2.68.1-5.36.08-7.96-.08-2.65-.15-4.97-.23-6.9-.23-.8,0-2.67.33-2.67,3.43s1.97,3.28,2.82,3.28h5.47c.23,0,.75.46,1.24,2.16.53,1.83.8,4.86.8,9v47.88c0,2.5-.18,3.14-.2,3.23,0,0-.21.18-1.08.18h-6.84c-.35,0-1.22.13-1.63,1.37-.19.55-.28,1.15-.28,1.76,0,.5.08,1.07.26,1.76.38,1.51,1.39,1.67,1.81,1.67,1.12,0,2.5-.03,4.14-.08,1.62-.05,4.09-.1,7.43-.15,3.25-.05,7.91-.08,14.27-.08h25.14v1.43c0,.39.16,1.32,1.66,1.59.63.11,1.16.17,1.62.17.37,0,.81-.06,1.36-.18,1.36-.31,1.46-1.29,1.46-1.58,0-2.74.05-5.78.15-9.01.1-3.23.35-6.18.73-8.68.23-.94-.24-1.73-1.19-1.97Z"/>
        <path class="cls-1" d="m1568.94,1494.28c-6.7-3.45-14.78-5.2-24.02-5.2h-14.74c-4.08,0-9.44-.1-15.96-.3-.46,0-1.31.17-1.88,1.31-.32.65-.49,1.36-.49,2.12,0,2.96,1.87,3.28,2.67,3.28h5.32c.39,0,2.34.53,2.34,11.01v49.86c0,1.58-.52,1.58-.82,1.58h-7.45c-.7,0-1.2.5-1.49,1.47-.18.6-.27,1.21-.27,1.81,0,.53.12,1.13.36,1.79.45,1.23,1.17,1.49,1.7,1.49,1.93,0,3.6-.03,4.98-.08,1.37-.05,2.88-.1,4.55-.15,1.61-.05,3.82-.08,6.73-.08h16.57c8.01,0,15.36-1.49,21.84-4.42,6.52-2.95,11.75-7.29,15.54-12.89,3.8-5.62,5.72-12.35,5.72-20.02,0-6.75-1.87-13.07-5.56-18.78-3.68-5.7-8.95-10.34-15.66-13.8Zm3.86,35.32c0,8.02-2.37,14.72-7.04,19.93-4.64,5.18-11.71,7.8-20.99,7.8h-5.47c-.49,0-1-.76-1.4-2.1-.53-1.77-.79-4.72-.79-8.76v-47.42c0-1.38.29-2.34.85-2.87.4-.37.99-.56,1.79-.56.14,0,.28,0,.42.02,7.79.3,14.14,1.96,18.89,4.94,4.72,2.97,8.22,6.99,10.41,11.94,2.21,5.02,3.33,10.76,3.33,17.08Z"/>
        <path class="cls-1" d="m1647.89,1533.75c-2.29-3.43-5.18-6.43-8.6-8.92-3.35-2.44-6.74-4.75-10.08-6.88-3.26-2.07-6-4.32-8.16-6.67-2.07-2.26-3.08-4.83-3.08-7.84s1.13-5.14,3.45-6.78c2.4-1.69,4.94-2.55,7.53-2.55,3.3.1,6.31,1.29,8.95,3.56,2.69,2.31,4.69,5.28,5.95,8.88.38.97,1.02,1.38,1.49,1.56.52.19,1.04.29,1.57.29,2.69,0,2.98-1.55,2.98-2.22v-.13c-.31-2.34-.6-4.09-.86-5.19-.25-1.06-.53-2.25-.82-3.51-.2-1.16-.37-2.4-.53-3.68-.16-1.3-.5-2.8-1.01-4.45-.26-1.39-.64-2.2-1.23-2.63-.54-.38-1.3-.56-2.33-.56-1.55,0-2.52.91-2.52,2.37,0,.18.01.4.04.64-1.05-.32-2.26-.64-3.62-.93-2.14-.47-4.54-.71-7.13-.71-4.26,0-8.34.74-12.14,2.19-3.84,1.48-7.02,3.67-9.45,6.52-2.48,2.91-3.74,6.55-3.74,10.83,0,4.56,1.19,8.49,3.54,11.69,2.28,3.1,5.13,5.94,8.5,8.42,3.31,2.45,6.65,4.81,9.91,7.01,3.21,2.17,5.93,4.54,8.09,7.05,2.06,2.39,3.1,5.26,3.1,8.54s-1.17,5.71-3.58,7.3c-2.51,1.66-5.16,2.49-7.89,2.49-2.93,0-5.65-.84-8.11-2.49-2.51-1.69-4.67-3.89-6.41-6.56-1.76-2.69-3.1-5.54-3.96-8.39-.12-.58-.6-1.56-2.5-1.56-.76,0-1.47.16-2.12.49-.85.42-1.31,1.15-1.31,2.03v.12c.51,4.24,1,7.86,1.46,10.75.45,2.85.83,6.07,1.14,9.62.16,1.31,1.04,2.09,2.36,2.09h.61l.22-.02c1.27-.28,1.97-.68,2.27-1.29.1-.21.21-.5.27-1.1,1.64.63,3.61,1.26,5.88,1.85,2.96.78,5.93,1.17,8.84,1.17,4.15,0,8.27-.71,12.26-2.11,4.04-1.42,7.44-3.57,10.12-6.41,2.75-2.91,4.15-6.62,4.15-11.02,0-5.04-1.18-9.37-3.51-12.87Z"/>
      </g>
      <path class="cls-1" d="m1439.66,1286.8c-.29-.9-.8-1.63-1.54-2.19s-1.63-.96-2.65-1.22c-1.02-.26-1.99-.31-2.9-.17-.91.14-1.7.55-2.38,1.21-.68.66-1.18,1.65-1.5,2.95l-1.61,6.45c-.33,1.3-.35,2.41-.06,3.31.29.9.8,1.63,1.53,2.19s1.62.96,2.64,1.22,2,.31,2.91.17c.92-.14,1.71-.54,2.39-1.21.68-.66,1.18-1.65,1.5-2.95l1.61-6.45c.33-1.3.34-2.41.06-3.31Zm-3.09,2.56l-1.61,6.45c-.23.93-.62,1.56-1.16,1.89s-1.2.39-1.96.2-1.3-.56-1.62-1.1-.36-1.28-.13-2.21l1.61-6.45c.23-.93.62-1.56,1.15-1.89.54-.33,1.18-.4,1.94-.21s1.3.56,1.63,1.1c.33.54.37,1.28.14,2.21Z"/>
    </g>
  </g>
</svg>