<?xml version="1.0" encoding="UTF-8"?>
<svg id="FINALS" xmlns="http://www.w3.org/2000/svg" viewBox="0 0 2890.76 4519.43">
  <defs>
    <style>
      .cls-1 {
        fill: #fff;
      }
    </style>
  </defs>
  <g id="W_Small" data-name="W Small">
    <path class="cls-1" d="m1569.19,1353.17c-11.62-14.68-32.96-17.1-47.58-5.4h0c-13.6,10.89-16.62,30.3-7.1,44.9,30.88,47.39,50.03,113.21,50.03,185.99,0,109.08-75.3,197.51-168.18,197.51s-168.18-88.43-168.18-197.51c0-72.78,19.14-138.6,50.03-185.99,9.52-14.6,6.5-34.01-7.1-44.9h0c-14.61-11.7-35.96-9.28-47.58,5.4-46.23,58.41-74.95,140.05-74.95,230.41,0,160.71,110.94,291,247.78,291s247.78-130.29,247.78-291c0-90.35-28.72-171.99-74.95-230.41Zm-387.75,219.62c-1.03-1.23-1.53-2.78-1.39-4.38l1.61-18.89c.26-3.08,2.89-5.49,5.98-5.49h0c.17,0,.34,0,.51.02l7.56.64c1.6.14,3.05.89,4.08,2.11,1.03,1.23,1.53,2.78,1.39,4.38l-1.61,18.89c-.26,3.08-2.89,5.49-5.98,5.49-.17,0-.34,0-.51-.02l-7.56-.64c-1.6-.14-3.05-.89-4.08-2.11Zm10.06,65.34c-2.97,0-5.53-2.22-5.94-5.17l-2.63-18.77c-.46-3.28,1.83-6.32,5.11-6.78l7.52-1.05c.28-.04.56-.06.84-.06,2.97,0,5.53,2.22,5.94,5.17l2.63,18.77c.46,3.28-1.83,6.32-5.11,6.78l-7.52,1.05c-.28.04-.56.06-.84.06Zm26.75,53.95l-7.08,2.75c-.7.27-1.43.41-2.17.41-2.46,0-4.71-1.54-5.59-3.83l-6.86-17.67c-.58-1.49-.54-3.12.1-4.59.65-1.47,1.83-2.59,3.32-3.17l7.08-2.75c.7-.27,1.43-.41,2.17-.41,2.46,0,4.71,1.54,5.59,3.83l6.86,17.67c1.2,3.08-.34,6.57-3.42,7.76Zm33.52,49.84c-.35,1.56-1.28,2.9-2.64,3.76l-6.4,4.07c-.96.61-2.08.94-3.22.94-2.06,0-3.96-1.04-5.06-2.78l-10.18-15.99c-1.78-2.79-.95-6.51,1.84-8.28l6.4-4.07c.96-.61,2.08-.94,3.22-.94,2.06,0,3.96,1.04,5.06,2.78l10.18,15.99c.86,1.35,1.14,2.96.8,4.52Zm316.67-10l-10.18,15.99c-1.11,1.74-3,2.78-5.06,2.78-1.14,0-2.25-.32-3.22-.94l-6.4-4.07c-1.35-.86-2.29-2.2-2.64-3.76-.35-1.56-.07-3.17.8-4.52l10.18-15.99c1.11-1.74,3-2.78,5.06-2.78h0c1.14,0,2.25.32,3.22.94l6.4,4.07c1.35.86,2.29,2.2,2.64,3.76s.07,3.17-.8,4.52Zm27.71-58.31l-6.86,17.67c-.89,2.29-3.14,3.83-5.59,3.83-.74,0-1.47-.14-2.17-.41l-7.08-2.75c-1.49-.58-2.67-1.71-3.32-3.17s-.68-3.1-.1-4.59l6.86-17.67c.9-2.33,3.1-3.83,5.59-3.83h0c.74,0,1.47.14,2.17.41l7.08,2.75c3.08,1.2,4.62,4.68,3.42,7.76Zm13.63-59.54l-2.63,18.77c-.41,2.95-2.97,5.17-5.94,5.17-.28,0-.56-.02-.84-.06l-7.52-1.05c-1.59-.22-2.99-1.05-3.96-2.33-.96-1.28-1.37-2.86-1.15-4.45l2.63-18.77c.41-2.95,2.97-5.17,5.94-5.17h0c.28,0,.56.02.84.06l7.52,1.05c1.59.22,2.99,1.05,3.96,2.33.96,1.28,1.37,2.86,1.15,4.45Zm-3.12-39.16l-7.56.64c-.17.01-.34.02-.51.02-3.09,0-5.71-2.41-5.98-5.49l-1.61-18.89c-.14-1.6.36-3.15,1.39-4.38,1.03-1.23,2.48-1.98,4.08-2.11l7.56-.64c.17-.01.34-.02.51-.02,3.09,0,5.71,2.41,5.98,5.49l1.61,18.89c.14,1.6-.36,3.15-1.39,4.38-1.03,1.23-2.48,1.98-4.08,2.11Z"/>
    <path class="cls-1" d="m1498.68,1275.54c-1.08-3.58-4.03-5.81-7.71-5.81-4.82,0-9.76.15-14.71.46-4.72.3-10.79.52-18.02.67-7.17.15-17.07.22-30.27.22-9.22,0-18.58-.08-27.82-.22-9.73-.15-19.45-.23-28.88-.23-3.67,0-6.53,2.03-7.67,5.44-.62,1.85-.93,3.83-.93,5.85,0,11.79,5.39,13.55,8.6,13.55h25.75c.13.11.34.32.63.7.22.29,1.38,2.11,2.69,8.95.99,5.24,1.49,13.63,1.49,24.95v193.05c0,7.01-.15,16.61-.45,29.35-.3,12.39-.9,25.57-1.79,39.17-.89,13.6-2.24,26.48-4.01,38.28-1.71,11.37-3.97,20.09-6.72,25.93-1.78,3.26-4.07,6.05-6.8,8.29-2.37,1.94-5.85,2.92-10.34,2.92-4.99,0-11.58-.94-19.57-2.79-7.86-1.83-14.95-4.59-21.09-8.21l-2.08-1.23-2.26.87c-19.01,7.34-23,20.05-23,29.41,0,6.03,2.31,10.98,6.7,14.33,3.74,2.85,7.91,4.75,12.4,5.65,4.13.82,7.32,1.22,9.75,1.22,17.48,0,33.81-3.65,48.55-10.86,14.61-7.15,27.6-16.92,38.62-29.03,10.98-12.07,19.69-25.73,25.91-40.64,5.26-13,8.71-28.93,10.25-47.36,1.5-18.08,2.27-38.05,2.27-59.36v-208.35c0-8.66,1.57-11.91,2.5-13.08.63-.79,2.96-2.62,10.95-2.62h19.35c1.59,0,5.5-.56,7.4-5.77.8-2.19,1.2-4.66,1.2-7.33,0-2.27-.3-4.42-.89-6.39Z"/>
  </g>
</svg>